<svg xmlns="http://www.w3.org/2000/svg" xmlns:xlink="http://www.w3.org/1999/xlink" viewBox="0 0 219.55 106.77" xmlns:v="https://vecta.io/nano"><g fill="#fff"><path d="M0 105.34l1.43-1.42V90.19L0 88.77h10.39V92l-1.91-1.86H3.45v5.58h3.71l1.45-1.41v4.2L7.16 97.1H3.45v6.82l1.46 1.42zm23.23 0l-4.1-7.65H16.7v6.23l1.46 1.42h-4.91l1.43-1.42V90.19l-1.43-1.42h5.43c2.73 0 5.55 1.72 5.55 4.61 0 1.66-1.35 3.31-3.15 3.88l3.74 6.65 1.44 1.42h-3.04zm-4.54-9.03c1.74 0 3.16-1.33 3.16-2.95a3.2 3.2 0 0 0-3.16-3.21H16.7v6.16h1.99zm18.59 8.89l1.42-1.38-1.14-3.38h-5.48l-1.2 3.38 1.42 1.38h-4.45l1.51-1.47 5.36-15.1h.97l5.29 15.13 1.46 1.44h-5.16zm-.2-5.99l-2.22-6.48-2.3 6.48h4.52zm10.63-7.4v12l1.57 1.53h-4.79l1.54-1.53V90.3l-1.54-1.53h3.73l7.51 11.67V90.3l-1.58-1.53h4.79l-1.58 1.53v16.47zm23.44 13.53v-1.52l-6.01-7v7.1l1.46 1.42h-4.91l1.43-1.42V90.19l-1.43-1.42h4.91l-1.46 1.42v5.77l6.27-5.97-1.22-1.22h4.3L67.03 96l7.77 9.33h-3.65zm5.72 0l1.43-1.42V90.19l-1.43-1.42h4.91l-1.46 1.42v13.66h3.94l1.94-1.88v3.37zm20.42 0l1.42-1.38-1.14-3.38h-5.48l-1.2 3.38 1.42 1.38h-4.45l1.51-1.47 5.36-15.1h.97l5.29 15.13 1.46 1.44h-5.16zm-.2-6.13l-2.22-6.48-2.3 6.48h4.52zm10.29-7.4v12l1.58 1.53h-4.79l1.54-1.53V90.3l-1.54-1.53h3.73l7.51 11.67V90.3l-1.58-1.53h4.79l-1.57 1.53v16.47zm13.76 13.58l1.43-1.42V90.24l-1.43-1.42h6.64c4.28 0 6.84 4.21 6.84 8.28s-2.56 8.28-6.84 8.28h-6.64zm5.79-1.38c3.34 0 5.09-3.47 5.09-6.91s-1.75-6.91-5.08-6.91h-2.59V104h2.59z"/><use xlink:href="#B"/><path d="M162.08 105.5c-.46 0-.99-.11-1.01-.11l-3.53-.63 1.78-2.74 1.67 1.91a3 3 0 0 0 1.09.19c1.84 0 2.69-1.44 2.69-2.77 0-.69-.2-1.65-1.15-2.29l-3.43-2.39c-1.39-.99-2.19-2.37-2.19-3.78 0-1.64 1.38-4.07 4.34-4.07.44 0 .59.03.81.08l3.44.63-1.7 2.45-1.52-1.59c-.11-.01-.22-.04-.36-.08-.19-.05-.41-.12-.68-.12-.9 0-2.32.6-2.32 2.22 0 .88.71 1.94 1.8 2.7l3.4 2.39c.59.39 1.59 1.33 1.59 3.18a4.8 4.8 0 0 1-4.73 4.81z"/><use xlink:href="#C"/><path d="M190.25 105.28l1.42-1.38-1.12-3.32h-5.39l-1.18 3.32 1.42 1.38h-4.46l1.52-1.47 5.29-14.91h.97l5.23 14.95 1.46 1.44h-5.16zm-.19-6.08l-2.17-6.34-2.25 6.34h4.42z"/><use xlink:href="#C" x="25.95"/><use xlink:href="#B" x="64.92"/><path d="M127.13 56.55zm-4.55-1.06l-.08-.05c-.11-.08.08.05.08.05zm1.13-34.12l.14-.22c-.2-.14-.71-.55-1.13-.67-.4-.11-.84-.1-1.07-.18l.03-.26c1.05-.17 1.15-.14 2.22-.02-.07-.76.17-1.06-1.35-1.17-.8-.06-.5-.02-1.3-.02-.07-.03-.21-.06-.24-.22 1.47-.53 1.26-.2 2.94-.17-.36-1.53-2.03-.89-3.42-1.46 1.36-.47 1.74-.16 3.24-.07-.09-.81-.36-.94-.73-1.04l-1.23-.18c-.14-.01-.23-.28-.23-.28 1.39-.23.97-.29 2.42-.03-.38-1.11-1.39-.96-2.71-1.01-.04 0-.07-.01-.1-.03h-.01a.2.2 0 0 1 .09-.36 6.2 6.2 0 0 1 2.99.24c-.75-.91-.75-.77-1.6-.83-.88-.07-1.49-.06-2.37-.06.46-.32.53-.34 1.04-.4a5.3 5.3 0 0 1 2.47.17c.14.01.29-.05.44-.11.1-.04.16-.15.14-.25h0c-.01-.08-.07-.15-.14-.18-1.2-.43-2.67-.41-3.97-.44l-.04-.24c1.48-.53 3 .01 4.56-.2-.8-1.3-2.34-.54-3.5-1.21 1.07-.47 2.23.01 3.18-.1-.17-.26-1.02-.74-1.3-.74-.03 0-.21-.32-.22-.32.2-.11.91-.08 1.31-.3L123.27 8l1.08-.19.03-.37s-.63-.39-.58-.46.46-.24.7-.27a4 4 0 0 1 2-3.19c-1.33-.26-1.91-.11-2.32.75-.79 1.65-2.14 2.8-3.6 3.79a5.9 5.9 0 0 0-2.87 5.81l.26 3.72a2.7 2.7 0 0 0 .78 1.95c1.38 1.47 2.62 3.02 2.84 5.16.03.29.17.57.31.83.09.17.6 1.07 1.5 1.31 1.13.31 1.64 0 1.92.05-.11-1.25-.69-1.81-1.74-2.02-.28-.05-.54-.18-.81-.27l.08-.28 1.45.13-.31-.83-1.64-.38.04-.29 1.47.08c.14-.82-.35-.97-.77-1.09l-.66-.19c-.01-.07 0-.21.01-.31l1.23-.05zm21.42-15.12l-.13-.82c-.21-1.8-.65-2.96-2.34-3.65L139.72.65c-2.69-1.19-5.13-.64-7.56.84-1.16.71-2.51 1.06-3.71 1.71-.9.49-2 1.01-2.44 1.84-.64 1.2-.59 3.06-.73 4.72a4.9 4.9 0 0 0 .31 1.84c.56 1.47.3 1.77 1.23 2.24.8-1.12.32-2.59.28-3.61l.21-.09.89 1.41c.32-.15-.61-1.77-.58-2.09l.31-.2c0-.1.95.98 1.12.97l-1.48-2.96c1.12.4 1.4 1.63 2.01 2.44.22-1.43-.74-2.62-1.26-3.8 1.45.58 1.51 2.06 2.13 3.24.11-.24.26-.53.18-.73l-1.22-2.69-.33-.65.22-.12c1.14.69 1.44 1.99 2.09 3.12.13-.4.24-.81.11-1.13l-1.2-2.53-.37-.81.25-.12c.95.95 1.56 2.14 1.95 3.46.1-.03.17-.08.27-.2l-.79-3.19.3-.09 1.18 2.6c.47-.64-.03-1.69-.21-2.23-.05-.14.02-.32.04-.49.15.09.37.15.44.28.16.29.35 1.17.48 1.52.86-.71-.24-1.53.24-2.38l.72 1.34c.19-.08.12-.07.29-.15-.17-.51-.07-1.04-.25-1.58.97.19.47 1.61 1.58 1.46l.14-1.18.21-.01c.07.21.11.45.22.64.12.2.3.35.45.52l.19-.6c.06-.25.09-.65.12-.91h.34c.16.48.17 1.11.33 1.59l.25-.07c.03-.58.22-1.24.24-1.82.09-.02.35.04.44.02.1.35-.1.69-.03 1.05.07.38-.18.92.54.9l.31-.88c.8.05-.11 1.24.84 1.13l.2-1h.2l.16.73.22.93.53-.9c.11.08.37.1.39.15.07.21-.37.73-.32.89s.37.03.62-.03c.04-.01.01-.02.09.04-.01.13-.19.3-.11.44.34.56 1.3.73 2.11.8zm-15.15 4.92a17.7 17.7 0 0 0-2.73 3.87c-.08.46.97 1.98 1.54 2.83.14-.51.25-.52.4-.99.09-.18.24-.31.63-.45-.52 1.45-.74 2-.28 2.92.39-.41.07-.7.78-1.07.1.9-.4 1.25.13 2.13.24-1.06.35-1.11.57-2.05l.24.04c.32.81-.32 1.3.1 2.1h.21l.69-2.97c-.93-.09-1.53-.73-1.66-1.51-.2-1.22-.58-2.32-.4-3.44.14-.61.22-1.16-.21-1.42zm2.73 6.66c-.12.79-.5 1.82-.62 2.64.13-.04.33-.06.46-.08.22-.03.5-1.02.56-1.11.04-.07.35.05.4.07.06.02-.05 1.14-.03 1.04.02-.08 1.69-.62 1.7-.71.01-.19-1.3-1.08-1.51-1.23l-.94-.62zm20.13-2c-.65-.99-1.57-1.78-2.46-2.75l.14 1.76.47.07.01.23-.58.07c.16.21.21.25.39.32s.33.18.5.27c-.17.11-.33.27-.52.31-.5.11-1.14-.12-1.44.64.47.02.92-.02 1.34.09.31.08.57.35.85.53l-.89.03c-.29-.01-.59-.13-.86-.08-.23.05-.44.23-.58.36-.07.06.22.15.31.17.87.15 1.4-.16 2.12.6-.56.1-1.11.04-1.66.01-.75-.04-1.07.16-1.32.77 2.08-.13 2.15-.12 2.72.57-.37 0-.64-.03-.9.01-.68.1-1.15.33-1.82.49-.27.06-.73.25-.99.25-1.21.02-2.43.1-3.62-.07-4.68-.67-9.07.5-13.69 2.04.53.49 1.17 1.27 1.82 1.18l.71-.66c.08.24-.1.67.01.89.03.07.25.12.43.09.16-.55.06-1.27.55-1.13.16.48-.39.91.39 1.3.57-.46-.11-1.4 1-1.72-.22.77-.15 1.28-.38 2.1.52-.05 3 .88 3.43 1.17.52.31 2.2 1.19 2.56 1.55.19.19.85.56.88.56a6 6 0 0 0 4.36-2.66c-.35-.37-.64-.31-.99.06a14.4 14.4 0 0 1-1.43 1.29c-.17.14-.42.18-.63.27l-.15-.19c.55-.75 1.54-1.23 1.59-2.48l-1.22 1.12c-.8.72-.8.71-1.18.44l1.42-1.77-.22-.24c-.28.22-.82.76-1.12.94-.19.11-.34-.08-.39-.14.09-.19.24-.3.35-.48.13-.2.23-.48.39-.67l-.17-.23c-.18.08-.37.16-.54.25-.3.15-.52.57-.81.72-.05.05-.49-.03-.46-.17-.04-.06.72-1.13.68-1.19-.16-.05-.07-.2-.22-.02-.41.49-1.45 1.33-1.45 1.33-.11.04-.22-.03-.37-.12-.12-.07.84-1.2.72-1.26-.13-.08-.17-.18-.27-.15-.33.14-1.26 1.25-1.41 1.21-.15 0-.22-.1-.29-.17 0-.07 1.09-1.59 1.09-1.67.17.03.32 0 .59 0 1.21-.02 2.86.47 4.54 1.42a20.4 20.4 0 0 0 3.27 1.55c1 .35 2.2.3 2.93-.46 1.25-1.31 2.25-2.87 2.7-4.71.32-1.31.54-2.69-.23-3.86zm-3.99 8.29c-.13 0-.34-.09-.37-.18-.12-.41-.18-.85-.27-1.27l.39-.18c.17.47.35.93.5 1.41.01.05-.17.23-.25.23zm.61-1.93l.25-.15.85 1.56c-.75.23-1.09-.27-1.09-1.41z"/><path d="M148.18 16.36c1.51-.33 2.29-2.12 1.2-3.36-.45-.52-.72-1.2-1.14-1.76-1.01-1.36-2.3-2.15-4.03-1.77-.77.17-1.5.49-2.26.7-.23.06-.68.04-.71-.06-.19-.55-.28-1.13-.4-1.7l.32-.14.71 1.32c.13-.29.06-.58.06-.87 0-.19.09-.37.15-.56.15.12.34.2.44.36.12.19.17.44.3.8.32-1.06.32-1.06 1.07-.49l.54-.69.45.52c.97-.49 1.51.72 2.39.61-.56-1.05-1.15-2.13-2.39-2.31-1.1-.16-2.26-.13-3.37.01-1.6.2-2.69 1.56-2.64 3.21.05 1.49.23 2.98.36 4.57l-1.41-.23.76-.89-.16-.13-1.04.35-.11-.28.67-.48c.17-.15.3-.36.45-.54l-.19-.14-1.21.48c-.07-1.02 1.47-.62 1.19-1.66l-.99.17-.06-.21 1.28-1.02-1.09-.16L138.44 9l-.18-.32c-.78.36-1.57.46-2.02 1.07-.46.63-.46 1.4-.53 2.28-.02.22.34.6.44.75-.18.39-.28.76-.44 1.09.43.03.46.23.94.27-.38.32-.26.38-.57.64.9.04 1.09.36.78 1.12.47-.12.6 0 .97-.1l.07.24c-.13.16.09.23-.24.64.68.04.81.15 1.35.18l-.14.39-.22.56c.21 0 .44.03.64-.02.33-.08.64-.22.96-.33l.15.25-1.07.88c1.23.7 1.68-.7 2.7-.91-.28.98-1.12 1.29-1.7 1.8 1.04.52 1.33-.68 2.26-.94l-.57 1.28c.56-.14 1.28-.13 1.36-.37.19-.53.11-1.18.03-1.76-.05-.32-.33-.61-.53-.9l-1.13-1.67c-.78-1.27-1.47-2.57-1.54-4.12-.01-.33.08-.66.12-.99.51.64-.08 1.68 1.08 1.86l-.36.79.85.1-.34 1.17.98-.61c.46.46-.74 1 .22 1.33l.63-1.02.26.14-.19 1.04c.29-.03.44-.17.59-.29l.39-.32.22.52c.09.18.2.35.32.57l.6-.9.19.07.07.82c.97.26.76-.58.86-1.04.47-2.12-.29-3.13-2.39-3.31-.26-.02-.52-.11-.95-.2.3-.21.44-.36.59-.4 1.2-.29 3.34.8 3.42 2.39.04.11.47-.07.49.03 0 .01.07.18.06.18-.19 0-.59.61-.75.86h1.18l-1.39 1.17h1.02l.01.31c-1.75 1.16-3.59.17-5.55-.07a5.9 5.9 0 0 1 1.24 1.51c.04 0 .12.26.17.45.07.3.14.38.14.83l.59-.68.27.14-.78 2.29c1.12-.09.59-1.51 1.7-1.8l-.6 2.16c.32-.24.51-.34.65-.5.22-.24.4-.52.6-.78l.01.96.02.36c.39-.2 1.02-.28 1.22-.6.28-.42.35-1.01.47-1.53.14-.63-.14-.89-.76-.87a24.1 24.1 0 0 1-1.9-.02c-.17-.01-.34-.16-.51-.25.24-.19.41-.22.59-.24.86-.09 1.74-.11 2.58-.29zm-4.15-5.07l.18.21-.71.91.06.21 1.47-.63.12.16-.34.68.74.07c-1.01.79-3.4.1-3.73-1.62l1.22-.3.08.18-.55.66.11.19.68-.35.68-.36zm-6.24-6.57c-.99.04-2.19-.02-2.9.52-1.92 1.46-3.34 3.46-3.61 5.97-.18 1.64.05 3.03.14 4.7.01.18.24.43.42.5 1.75.76 3.2 1.95 4.53 3.32.16.16.46.29.68.27.65-.06 1.28-.2 2.02-.32l-.63-.96-2.31-2.57c-.38-.46-.8-1.04-.85-1.6-.24-2.78-.53-3.54 1.03-5.99.13-.21.56-1.97.66-2.2l.23.07c.03.71.14 1.09.17 1.8.08.02.16-.1.23-.08l.36-2.07.28.03.12 1.73h.19l.31-1.62.19-.04.47 1.11c.04-.1.18-.04.21-.19l.19-1.06c.02-.05.16-.04.32-.05.29.63.52.54 1.06.42s1.08-.21 1.66-.25c-1.55-1.29-3.28-1.51-5.14-1.44zm-6.13 7.82c.54-.66 1.04-.84 1.81-.51-.54.64-1.03.88-1.81.51zm2.34 1.23l-1.91.67c.23-.96 1-1.26 1.91-.67zm.05 1.64c-.52.21-1.05.37-1.58.54l-.17-.44 1.51-.7c.08-.03.31.1.35.2s-.03.36-.11.39z"/><path d="M158.06 23.66c-.09-1.07-.27-2.14-.42-3.2-.19-1.34-.11-6.7-.19-7.62-.08-.88-.54-1.52-1.2-2.01a13 13 0 0 0-1.9-1.16c-1.42-.7-2.11-1.24-3.8-.63 0 .01-.16.06-.22.05l-.36-.04c1.05-.86 1.61-.61 2.79-.72l-.9-2.98c-.08-.24-.31-.51-.54-.59l-3.76-1.18c-.63-.15-1.28-.05-2.03-.05.18.47.38.77.48 1.03l.59-.11.1.19c-.16.15-.35.28-.48.45-.12.17-.19.38-.35.72l1.31-.56.15.19c-.1.15-.19.31-.31.44l-.78.8 1.09-.36c.35-.12.71-.54 1.04.06l-1.53 1.02.16.3 2.58-1.01.12.24-1.9 1.25.13.24 1.44-.55c.13-.04.3.07.45.12-.09.13-.15.3-.28.38l-1.22.7c-.12.09-.12.36-.17.55l.52.07c.16.01.33 0 .63 0l-.81 1.07c.94-.12 1.5-1.01 2.66-.67l-2.15 1.4c.47.44.82.55 1.27.17.34-.29.76-.49 1.16-.69.19-.09.42-.08.64-.11l.09.26-1.7 1.05.4.58c.79-.55 1.43-1.24 2.38-1.06l.04.21-2.06 1.19.56.65c.52-.21.87-.87 1.68-.44l-1.25.86.04.25c.22-.01.46.04.64-.04.31-.14.57-.39.88-.54.13-.06.32.02.49.04-.07.16-.09.38-.21.46-.37.24-.77.42-1.16.62l.09.26 1.43-.21c.32.13.33.43.32.44-1.29.28-.85.94-.86 1.19.25.15.92.2 1.13.32.14.08-.02.34-.03.33l-1.13.35.91 1.1h-.88c-.18.72.38.69.76.85l1.24.58-.13.33-.51-.11-1.3-.27c-.12-.01-.33.17-.38.3-.03.09.73.59.85.67.22.14.49.19.72.31l.94.55-.11.27-1.25-.23c-1.14-.24-1.81-.26-2.14.92 1.47.68 2.5.85 2.45 1.32-1.96-.31-2.94-.73-3.18-.4l2.29.99c.22.15.33.45.5.68-.26-.03-.55.02-.76-.09-.56-.28-2.3-.93-2.97-.58l1.96 1.17c.2.15.29.44.43.67-.25-.05-.53-.05-.75-.17-.68-.36-1.9-1.26-2.77-1 .49.61 2.06.94 2.35 1.97-1.3-.29-2.71-1.95-4.25-1.51l1.62.87c.14.09.17.37.24.57-.19 0-.41.06-.56-.01l-1.97-1.04c-.26-.11-.33-.03-.83 0 .5.57 1.64.9 1.55 1.71-.63.07-2.12-1.51-2.94-.57a9.8 9.8 0 0 1 1.08 1.07c0 .05-.22.11-.43.09-.35-.04-1.37-.57-1.79-.61.28.35.91.86 1.16 1.19l-.15.22c-.27-.1-1.03-.55-1.29-.66-.94-.39-1.02-.34-1.19.68 0 .03-.08.05-.13.08-3.29-2.46-4.89-3.63-8.99-4.37a9.2 9.2 0 0 1-1.95-.55c-.44-.22-.78-.69-1.5-1.89-.3-.49.17-1.3-.15-1.9-.72-1.34-2.31-3.03-3.05-4.63l-1.21-2.79-.26.05c-.04 1.19-.42 2.39-.39 3.57.06 2.19 1.16 4 2.19 5.83l1.72 3.18c.72 1.27 1.37 2.51 2.87 3.09 1.77.68 3.56 1.18 5.36 1.74 2.13.66 5.16 2.81 5.56 2.82s1.78-1.99 2.82-2.48c2.21-1.03 4.48-1.19 6.79-1.98.94-.32 1.96-.37 2.91-.68 1.96-.64 3.33-2.78 3.16-4.85zm-31.21-2.73c-.04.03-.27-.08-.3-.16-.04-.12-.03-.35.05-.41.36-.25.74-.45 1.12-.66l.3.31-1.17.92zm.74 1.28c-.46-.63-.1-1.12.98-1.49l.22.19-1.21 1.3zm2.51 3.44c-.11.16-.41.19-.63.28l-.12-.22.69-.98.28.11c-.07.28-.07.6-.22.82zm.66 1.87l-.34-.44.63-1.46c.11.07.33.17.32.2l-.61 1.71zm.63.43l.93-2.02.25.11c.08 1-.4 1.86-1.18 1.91zm2.02.37c-.09.04-.27.05-.33-.02-.08-.08-.14-.26-.11-.36l.63-1.95c.37.63.12 2.18-.19 2.33zm1.38 1.05c-.36-.64-.05-1.83.61-2.52.24.97-.06 1.7-.61 2.52zm2.04.18c-.14-.03-.43.14-.57.11l.4-2.02c.15.03.31.57.46.6l-.29 1.31zm3.26 1.77l-.38-.05c-.33-.61-.03-1.14.21-1.68l.37.05c0 .13-.03.22-.2 1.68zm1.12.47l-.22-.14v-1.49l.29-.09c.1.33.28.66.29.99 0 .24-.23.48-.35.73zm-71.53-2.7l-.25.03c-.4.92-.3 1.44.38 1.52l-.12-1.55zm-1.04-.03h-.38l-.24 1.11c-.01.09.13.23.23.28.07.03.28-.05.28-.09l.1-1.3zm2.22-.21l.16-.15c.16.13.4.23.45.4.07.22-.01.49-.03.74l-.14.01-.44-1zm9.6 2.57a16.6 16.6 0 0 0 3.23-5.7c.04-.21.01-.25-.2-.23a48.6 48.6 0 0 0-2.84.52c-.35.1-.98.52-1.1.86-.31.87.51 2.44.42 2.52-.13.11-1.06-.77-1.23-1.78-.04-.23-.23.15-.41.31-.03.03.11 2.13.07 2.13s-.68-.57-.78-1.45c-.01-.12-.09-.13-.18-.08-.13.07-.08.04-.1.16-.05.26.05 1.82.01 1.92-.05.16-.17.21-.31.22-.12 0-.64-1.6-.81-1.5l-.41.24c-.06.04-.12.1-.14.17-.09.25.09 1.62-.03 1.86-.02.04-.1.09-.12.08-.12-.07-.43-1.2-.51-1.5-.02-.07-.1-.13-.15-.2-.07.06-.15.11-.2.18a17 17 0 0 0-1.02 2.8c-.02.06-.16-.1-.17-.17-.09-.46.04-1.67.04-1.95 0-.05-.06-.13-.07-.13a4.8 4.8 0 0 0-.74.3c-.07.04-.37 2.89-.69 3.01s-.02-2.69-.16-2.7a2.4 2.4 0 0 0-.81.47c-.06.34-.15 2.86-.4 2.89s-.48-1.99-.47-2.53c0 0-.01-.01-.02-.01h-.05c-.45.06-1.62.83-1.75.78-.02.03-.04.06-.04.09-.02.21-.09.78-.14.81-.17.09-.69-.95-.69-1.16 0-.08-.31-.44-.43-.53-.11-.09-.2-.08-.24.06-.04.16-.26.73-.38.78s-.43-1.57-.47-1.59c-.2-.1-.62.98-.68.98-.09.01-.17-.64-.01-1.31.03-.15-2.48-1.63-2.49-1.53a12.5 12.5 0 0 0 .08 2.1c.14.39.44.64.73.9.29.27 5.67 3.68 6.06 4.02.34.3.93.13 1.14-.01.38-.26 1.93-1.12 2.13-1.2a194.4 194.4 0 0 0 6.34-3.01 6.6 6.6 0 0 0 1.18-.85z"/><path d="M84.16 14.25c.16-.34 1-2.43.78-2.89-.01-.02-.07-2.38-1.9-2.93-.24-.07-1.34.14-1.29.26.11.28.28 1.03.54 1.26.36.32.82.12.85.41.03.25-.91.54-.92.74-.03.36-.11.62-.19.75-.04.06 1.45.52 1.22.81-.09.11-1.84-.02-1.95.11-.09.11.93 1.16.83 1.28-.15.18-1.42-.57-1.57-.38-.12.14-.12.02-.22.15-.17.2 1.13 1.01 1.02 1.15-.13.15-1.78-.12-1.81-.08-.04.05.75 1.2.42 1.47-.14.11-1.34-.72-1.49-.6-.19.15.55 1.38.37 1.51-.11.09-1.14-.91-1.24-.83l-.4.32c-.18.15.39 1.2.06 1.43-.18.12-1.34-.51-1.4-.48-.09.05.42 1.37.18 1.49-.14.07-.99-1.08-1.14-1l-.43.21c-.1.05.09 1.62-.01 1.67-.16.08-.59-1.37-.72-1.31-.25.11-.68 1.9-.76 1.92-.07.02-.61-.47-.37-1.55-.71.3-.64 1.14-.85 1.18-.19.04-.51-.2-.3-.92.05-.17-.34.08-.51.11-.23.05-.51.64-.61 1.14-.07.34-.61-.86-.67-.84-.3.09-1.64-.15-1.97-.25a12.6 12.6 0 0 1-.9-.34c-.18-.08-.26.07-.37.13-.04.02.66 1.42.7 1.53.07.2 1.66.68 2.11.86.31.12 2.93 0 3.74.17.62.13 1.35.37 1.83.61.2.1.68.1.78-.1.06-.12 1.11-1.21 1.21-1.33a8 8 0 0 1 .67-.65c.4-.34 2.65-1.85 3.87-2.83a13.1 13.1 0 0 0 2.84-3.34zM67.37 31.02l.98.84c.09.07.25.1.35.06.18-.06 4.55-2.1 4.78-2.23.29-.17 1.63-.73 1.81-.83a10.5 10.5 0 0 0 3.02-2.53c-.14-.01-9.34 2.25-9.66 2.17-.16-.04-.33-.46-.51-.64s-.4-.12-.51 0c-.24.27-.85.83-1.05.61s.81-1.2.98-1.39c.03-.03.24-.51-.11-.36s-1.52 1.43-1.79 1.48-.56-.16-.6-.2 2.13-2.23 2.13-2.28c-.02-.23-.14-.3-.36-.23-.33.11-1.82 1.16-2.14 1.29s-.49-.11-.53-.13 1.75-1.85 2.45-2.02c.05-.01-.06-.51-.02-.56-.05-.03-1.3.59-1.86.84s-.87.35-.85.1c.04-.48 1.83-1.12 2.53-1.64-1.11-.52-2.9 1.04-3.31.87s1.45-1.18 1.45-1.18-.27-.32-.47-.25c-.33.11-2.29 1.36-2.37 1.23s1.04-1.25 1.08-1.32c-.03-.07-.17-.3-.3-.3-.68 0-2.07.79-2.17.69-.13-.14.83-.66 1.05-1.19s-.47-1.89-.24-2.82c-1.07.24-1.73 2.98-1.77 3.38a6.2 6.2 0 0 0 .44 3.07c.24.51.65.9 1.09 1.24a69.8 69.8 0 0 0 3.83 2.51 34.4 34.4 0 0 1 2.63 1.72zm-1.85-18.74a25.4 25.4 0 0 0-.72 2.64 30.9 30.9 0 0 0 .28 2.67c.07.2.17.4.39.46 1.74.47 4.58.79 7.07.06a14.5 14.5 0 0 0 1.66-.68c.1-.07.76-.41.72-.54s-1.56-.75-2.57-.77c-.69-.01-2.22.56-2.37.48-.19-.1 1.35-.93 1.31-1.01-.04-.09-1.9.49-2.12.4-.19-.08 1.13-.85.95-.91-.17-.06-.01-.07-.17-.12-.25-.08-1.67.85-1.86.79l-.37-.13c-.12-.04 1.26-.83 1.18-.88-.27-.17-.28-.51-.98-.24-.53.2-1.33.94-1.35.95-.05-.08-.29-.58 0-.91.54-.61 1.19-.51 1.56-.85.14-.13-.95-.24-1.66 0-.03-.41 1.56-.56 1.52-.61-.08-.09-.95-.24-1.49-.03.07-.61 1.2-.5 1.22-.68.06-.7.33-1.98.33-2.32 0-.06-1.85 1.58-2.19 1.83a4 4 0 0 0-.33.39z"/><path d="M62.58 21.38c.17.03 1.93.57 2.24.66a56 56 0 0 0 3.36.19l.01-.04-1.38-.89c-1.13-.56-.51-1.31-1.5-1.64-.48-.16-.54.19-1.44.38-.34.07-.43-.29-.35-.3.3-.06 1.52-.47.81-1.52-.07.02-1.17.18-1.25.07-.07-.1-.49-.57-.37-.64.16-.1 1.39-.25 1.39-.3 0-.07.03.04.05-.37.01-.13-1.65-.89-1.64-1.04.01-.13 1.75.28 1.76.13s-.06-.22-.05-.37c.01-.13-1.18-.84-1.17-.98.01-.16 1.21.26 1.22.1 0-.09-1.33-1.29-1.32-1.38.01-.26 1.36.6 1.38.37.01-.11-.74-1.22-.73-1.32l.03-.37c.01-.21.82.77.81.74-.02-.12.17-.54.14-.78 0-.17-.73-.9-.71-1.01-.06-.01.09-.21.13-.3.05-.11 1.01.85 1.07.78.13-.15.92-.54.83-.72 0 0-.41-.42-.68-.95-.25-.5-.44-1.28-.47-1.26-.06.04-1.76 2.44-1.99 2.75a9 9 0 0 0-1.3 2.27c-.06.41.37 5.75.41 6.56.03.77.1 1.11.71 1.21zm20.26-3.67c-.01 0-.64.5-.59.52l.69.32-.15.24c-.26 0-.98-.12-1.19.04-.17.13.79.53.59.68-.18.13-1.2-.28-1.4-.14-.13.09.68.67.54.77-.05.04-.15.07-.27.09-.13.02-.65-.38-.86-.32a10.4 10.4 0 0 0-3.86 2.48c-.03.14 1.15.18 1.87.05 1.51-.28 6.51-3.64 6.68-3.88s-1.34-1.05-2.05-.85zM70.53 9.07c.04-.12-.38-.26-.34-.41.1-.3 1.02.19 1.02-.1 0-.03-.7-.37-.68-.41s.2-.34.2-.34.98.43 1.35 0c.17-.24 1.2-1.23 1.64-1.28.19-.02.51.1.64.14l2.97 1.29c.44.15.9 0 1.29.07.17.03.47.34.5.34 0 .02-.92.2-1.26.38s-.63.84-.85 1.25-2.53 2.65-2.67 2.8l-1.24 1.37-.5.78c-.09.13-.09.17.05.22.31.12.5.3 1.23.58s2.18.41 2.21.41c.21.02.4.03.58-.15.22-.21 2.03-1.52 2.14-1.61.71-.6 2.49-3.34 2.5-3.36.07-.1.12-.21.17-.3-.02-.07-.03-.12-.05-.15-.14-.25-.25-.87-.52-1.03-.19-.11-.27.56-.41.74-.08.11-1.76 1.55-2.71 2.55-.11.12.74.36.68.46-.12.21-.19.32-.21.28-.01-.03-.98-.25-1.04-.32-.01.1.71.54.72.59.05.17-.24.15-.32.22-.08.08-.95-.34-1.04-.27-.13.11.49.92.41.99-.11.1-.23.17-.36.22-.05.02-.68-.45-.68-.45l-.32.04.32 1.08c-.02-.02-1.61-.83-2.22-.66l.9-.57 1.34-.82a8.7 8.7 0 0 0 .71-.59l.75-.73 1.03-1.12 1.56-2.12c.21-.25.67-1.04.56-1.56-.09-.45-1.99-1.02-2.07-1.11-1.2-.55-3.59-.89-3.64-.91a4.8 4.8 0 0 0-.54 0c-.48-.01-1.12.02-1.16.04l-.94.6-2.84 1.65c-.25.13-.41.34-.43.65-.01.12-.31 1.68-.5 2.33-.11.37-.2 1.59-.18 1.71.08.41.23.79.59 1.03.14.09.57.54.69.61.22.14 1.98.61 2.01.53.01.01.4-.8.71-1.16-.44.09-.97.19-1.05.13-.24-.05-.29-.42-.51-.77-.12-.19-1.2-1.12-1.26-1.41s-.08-.71-.05-.98l1.1-1.42z"/><path d="M76.31 8.85c0-.12-.55-.77-.79-.93s-1.62-.85-1.78-.68c-.05.06-1.62.84-2.72 2.17 0 0-.37.77-.34 1.29s-.16.9.25 1.08c.16.02.94 1.06 1.13 1.08.06 0-.38-1.01-.38-1.01l.95.95c.29-.04.5-.27.51-.27.05.01-.79-.95-.69-1.08.15-.2 1.3.75 1.44.54.1-.15-.6-1.03-.5-1.17s1.03.56 1.03.56l.21-.22s-.56-.83-.52-.88c.21-.25 1.12.36 1.33.11.17-.2.5-.32.77-.79s.1-.7.1-.74zm-2.11.69c-.77.68-2.27 1.44-2.62 1.49l.2-.59c.04-.4-.16-.95.07-1.08.17-.1.73.64.9.54.15-.09-.53-.72-.44-.81.2-.2.98.6 1.13.45.04-.04.09-.92.18-1.22.23.13.83.96.59 1.22zm-7.73 1.05c.08-.01.87-.74.95-.74.04-.19-.74-.89-.79-1.04-.15-.47-.24-.48-.41-.95-.06-.15-.21-.34-.22-.52l.24-.08c.39.68 1.19 1.34 1.58 2.02.61-.41.04-1.02-.42-2.02-.24-.54-.57-1.38-.49-1.42.97.66 1 1.05 1.58 2.1.84-1.51.01-1.46-.02-2.6.88.62.84.81 1.31 1.78.56-.74.28-.78.1-1.26l-.36-1.12.22-.11 1.12 1.78c.86-.84-.54-1.75-.3-2.45l.23-.11c.25.54.79 1.33 1.09 1.99.48-.9.36-.8.11-1.36-.26-.58-.48-.87-.8-1.42.44.13.71.08.89.41.37.68.37.91.68 1.63.06.13.21.07.34.17.08-.06.09-.68.17-.74l-.46-1.39.22-.11c.94.66.62 1.38 1.35 2.25.8-1.13-.2-1.26-.06-2.31.78.44.71 1.24 1.15 1.78.33.09.6-1.26 1.03-1.92.45-.77 1.16-1.41.89-1.48a8.3 8.3 0 0 0-7.27.78l-3 1.96c-.66.39-1.08.84-1.35 1.42-.73 1.57-.66 2.18-.57 2.72a10.4 10.4 0 0 0 1.26 2.37zm31.23-.64c-.1-.2-.92-2.51-1.09-2.65-.63-.54-.54-.67-1.38-.66l-.84.02c-.27 0-1.12-.02-.96.33.19.42.23 2.05.22 2.69.41-.18 1.1-.44 1.08-.22-.02.3-.9.54-1.19 1.27.91-.04 2.05.21 1.76.27-1.2.23-2.05.6-2.1.68-.03.04-.09.49-.1.54.06-.01.84-.46 1.45-.33.63.13 1.17.45 1.13.63s-.77-.22-1.4-.04a4.6 4.6 0 0 0-1.33.54c-.13.09-.62.74-.16.55.42-.18.59-.14 1.4-.27s1.44.45 1.4.54-2.72.08-2.89.18c-.4.24-.42.63-.35.71s.53-.08 1.3-.03 1.37.17 1.65.47c.06.06.06.16 0 .22-.07.07-.14.17-.18.16-.82-.29-2.14-.28-2.67-.3-.36-.02-.52.27-.72.56l2.58.62c.19.08-.15.17-.12.26.04.14-2.89-.57-3.09-.33 1.24.48 1.72 1.11 2.17 1.36.03.02-.18.12-.14.16a7.3 7.3 0 0 1-1.23-.59 6.6 6.6 0 0 0-1.47-.39 4.4 4.4 0 0 0-.68.25c0 .03.32.09.68.32l.88.52c.26.18.77.63 1.02.83.03.02-.22.23-.24.24-.25-.32-2.66-1.31-3.13-1.5-.06-.02-.34.16-.32.17 1.61.94 2.76 2.32 2.61 2.41-.08.05-2.71-2.15-3.91-1.78-.12.29.42.46.69.61.28.16.91.47 1.22.78s.83.96.64 1.14c-.37-.2-1.08-.9-1.66-1.21a11.1 11.1 0 0 0-1.59-.66c-.19-.07-.83.14-.95.22.1.07.17.13.25.17l1.76.89c.46.23.91.83.85.9s-1.06-.43-1.34-.54c-.47-.18-1.5-.9-1.98-1.08-.15-.06-.27.02-.39.09-.06.04 2.22 1.82 2.17 1.87-.07.06-.62-.13-.71-.14-.22-.01-2.16-1.14-2.29-1.07s-.35.1-.22.17a10.6 10.6 0 0 1 1.71 1.41c-.07.07-.64-.16-.74-.2l-1.77-.78c-.12-.03-.41.05-.58.17-.1.07 1.42.97 1.52 1.05.13.09-.12.19-.2.21-.1.03-1.73-.79-1.91-.85-.03-.01-.14.03-.16.06-.04.09 1.44 1.39 1.22 1.47s-1.72-.82-2.05-.96c-.25-.1-.41.18-.34.24.32.27 1.26.86 1.08 1.04s-1.54-.71-1.67-.66l-.23.09c-.14.05.84.84.66.86-.29.05-1.28-.65-1.39-.61l-.17.07c-.12.04.6.73.49.76-.24.07-.99-.37-1.02-.39-.61-.47-1.56-.18-1.96-.09s-.52.1-1.08.17c-.89.11-1.53-.83-2.26-.83a25.2 25.2 0 0 1-2.37-.14c-.34-.05-.69-.03-1.03.01-.77.1-1.3.35-1.8.52-.08.03-.21.11-.21.17-.02.25-.03.5.02.74a48 48 0 0 0 1.12 3.25c.16.36 1.53.36 1.78.3l1.85-.57c.44-.15 5.76-1.48 6.02-1.53a963.5 963.5 0 0 1 11.4-1.55 9.7 9.7 0 0 0 1.87-.56 15.6 15.6 0 0 0 4.53-4.85 25.7 25.7 0 0 0 1.72-5.98 5.6 5.6 0 0 0-.14-2.57zM70.04 25.4c-.57-.55-.38-1.52.32-2.23l.26.08-.58 2.15zm1.31-.04c-.01.03-.54.22-.55.12a7.9 7.9 0 0 1 .63-1.71c.14-.1.25.04.38.06l-.45 1.54zm1.7-.37l-.23.09c-.11-.21-.32-.42-.31-.62.03-.27.23-.52.36-.77l.29.1-.1 1.2z"/><path d="M92.49 11.2c.03-.28.38-1.83.36-2.02-.01-.17 0-.66 0-.73 0-.17-.09-.74-.3-1.43-.26-.79-.57-3.99-1.96-5.1-.44-.35-1.84-.44-3.16-.61-1.45-.19-1.79-1.62-8.33-.2-1.43.57-2.89 3.81-2.39 3.89 0 0 .68-1.01.98-1.28l1.15-1.08c.02-.01.03.35 0 .37-.2.14-.68.88-.95 1.29s-.47.69-.18.86c.01.01.32.12.32.12l1.49-1.83c.34-.34.55-.56.78-.51.16.04-1.02 1.89-1.02 1.89l-.03.72.9-.54s2.19-2.07 2.47-1.98c.04.01.07.09.07.13 0 .02-2.43 2.85-2.23 3.02.16.13 1.89-1.51 2.08-1.62.4-.25 1.03-.52 1.32-.43-.38.06-2.3 2.3-2.38 2.67-.06.25.18.28.2.34.05-.03 1.09-1.47 2.17-2.1 1.3-.76 1.91-.96 2.05-.85S83.09 5.75 82.81 7c-.07.3.31.35.31.34-.17-.45 2.67-2.24 3.31-1.95.3.13.33.23.36.24-.37-.04-2.66 1.22-2.83 2.37l.37.17s2.57-2.03 3.19-1.4c.2.21-2.49 2.01-2.31 2.32.06-.02.88-.05.9-.09a11.3 11.3 0 0 1 2.87-1.54c.12.09-2.58 2.22-3.03 2.66-.17.17-.15.79-.07.78.1-.02 3.53-1.76 3.59-1.53s-2.97 2.2-3.21 2.55c-.11.16-.2.36-.06.6l2.39-.79-.31.57-2.43 1.06-.52.61 2.84-.17-.43.56s-2.65.35-2.71.54c-.05.18-.17.65-.14.64.74-.1 2.5.24 2.47.48-.05.26-.73-.17-3.33.53-.22.24-.84.63-.58.64 1.33.01 2.46.6 3 .53s3.89-2.11 4.25-2.3c1.08-.77.71-1.43.78-1.9.13-.92.96-2 .99-2.3zm-5.94-7.74l-.25.01c-.03-.23-.16-.51-.08-.68.11-.24.39-.41.59-.61l.13.1-.39 1.18zm1.18.7l1.09-1.41c.52.59.2 1.11-.85 1.58l-.24-.17zm1.3 3.25l.04-.02c-.01.01-.03.01-.04.02zm-.11-2.13l-.33-.29 1.09-1.03c.04-.03.28.06.31.14.05.12.06.35-.02.42-.33.28-.7.51-1.06.76zm.57 1.13c.22-.26.41-.59.69-.78.2-.13.53-.07.81-.09v.26l-1.27.8-.23-.2zm.42 1.78l-.16-.34c.11-.07.2-.1 1.53-.74l.16.35c-.34.61-.95.64-1.53.73zm3.34 14.83c-.18.19.67.54.49 1.08-.06.19-.36-.58-1.17-.49-.17.02-.13.01-.4.18-.18.12.77.89.45 1.21-.05.05-.82-.79-1.3-.67l-.82.22a6.4 6.4 0 0 1 .86 1.4c-.02 0-.4.05-.45-.05-.29-.57-1.13-1.1-1.34-1.1-.11 0-.89-.01-.98.05.14.16 1.24 1.08 1.24 1.77 0 .05-.08.03-.18.05-.12.02-.14-.14-.72-.67s-1.56-1.02-1.76-1.05c-.21.06-.63.05-.67.16a7.3 7.3 0 0 1 1.58 1.95c-.11 0-.36.09-.45 0-.78-.78-2.11-1.7-2.2-1.81a1.8 1.8 0 0 0-.86.11c.13.11 1.1.47 1.82 2.17-.01.02.01.43 0 .45-.07-.01-1.49-2.17-2.08-2.13-.03 0-.24.65-.18.71.65.63 1.6 2.36 1.48 2.47-.02.04-1.79-1.76-1.86-1.55s-.12.41-.07.44c.72.36 1.2 1.97 1.23 2.05-.28-.1-.74-.95-1.53-1.46-.08-.05-.15.07-.17.11-.03.07-.34.61-.17.69.55.29 1.1 1.25 1.1 1.54 0 .03-.19.04-.22.05-.06.01-.56-.77-1.14-1.09-.06-.03-.12.11-.22.22-.05.06.89 1.36.83 1.44s-1.12-1.11-1.17-1.03l-.26.44c.14.13.65.68.76 1.22.01.07-.05.11-.08.13-.13.09-.63-.71-1.02-.89-.06-.02-.16.02-.23.16-.01.03.52.97.46 1.02-.04.04-.06.02-.11.07s-.71-.76-.76-.72c-.13.1-.23.19-.21.22.11.22.49.92.42 1.04a5.4 5.4 0 0 1-.76-.65c-.15-.18-.18-.19-.39-.09l-.27.11c-.1.05-.08.14-.01.22a2.7 2.7 0 0 1 .38.75c-.19.19-.47-.12-.62-.34-.06-.08-.13-.15-.2-.22-.14-.12-.27.02-.37.08-.15.09-.16.15-.01.26.26.2.61.81.41.91-.14.07-.92-.8-.96-.87a6.5 6.5 0 0 0-1.68.63c-.05.03-.11.12-.1.16a8.3 8.3 0 0 0 1.88.56 5 5 0 0 0 1.62-.1c2.64-.85 5.19-3.33 6.56-4.41 2.99-2.34 6.83-4.42 7.63-5.79.93-1.6 1.06-2.7 1.27-3.36.04-.13.05-.28.07-.45a437.3 437.3 0 0 0-2.42 2.52zm35.14 6.26l-.13-.09.07.21.06-.12zm-17.72 8.38h0zm24.33 6.3c.08 0 .09-.03.07-.08-.02.05-.04.08-.07.08zm-3.51-8.86zm-25.02 18.53l.05.06s-.01-.02-.05-.06z"/><path d="M93.31 29.15c-.07-.15.02-.24.19-.21 0 0 .28.03.58.32-.14-.71-.2-1.31-.2-1.31l.65.45s-.2-.91-.2-1.39c0-.14.01-.29.03-.45l-2.08.96a12.3 12.3 0 0 0-1.98 1.28l-.41-.43-.97.71-1.6 1.34c-.82.91-.52 1.53-.35 1.25.42-.67 1.43-1.76 1.8-1.55-.81.72-1.57 1.55-2.24 2.56l-.79-1.03-.78.71 1.03.98c-.71 1.16-.94 1.38-1.03 1.47-.68.38-3.32 1.03-5.7 2.83l4.4.88-.18-.43s1.44-.33 2.89-.24l.82.08.5.06.7.1c.03-.01.05-.16.06-.18.09-.18.09-.34.09-.34s-2.16-.95-2-1.22c.09-.14.65.03 1.32.35.25.12 1.11.27 1.2.09s.18-.3.09-.52a4.4 4.4 0 0 0-1.47-1.2c-.09-.05-.27-.39-.17-.39.37 0 2 .75 2.15.71.39-.1.65-.31.5-.64-.1-.23-1.14-.85-1.53-1.37-.08-.11-.11-.55.28-.25.18.14.96.45 1.14.56.54.31.93.48.99.22.15-.65-1.4-1.85-1.4-2.12 0-.08.22-.05.39.08.33.25.66.45.95.59.57.28 1.02.54 1.16.28.2-.39-1.7-1.83-1.49-1.96.26-.16.99.32 1.51.7.67.49.59.86 1.11.5.12-.08-.26-.95-.48-1.18-.52-.52-1.04-.86-.92-.94.31-.22 1.21.05 1.66.85s.6.79.73.74c.07-.02-.08-.66-.55-1.57l-.42-.76zm-9.22 7.59l-.08.31-2.03.08 1.4-.62.94-.31s-.16.23-.23.54zm6.76 17.19l-.92.74a4.4 4.4 0 0 1 1.21.33c.43.2.73.4.96.57.13.1.31.09.42-.02l.15-.13c-.35-.43-.76-1.02-1.55-1.35-.07-.03-.23-.11-.27-.14zm2.38-2.15l.78-.88c.81.17 1.72.88 1.92 1.32l-.29.29c-.14.13-.35.15-.51.04l-.27-.19c-.51-.27-.98-.41-1.22-.49s-.41-.09-.41-.09z"/><path d="M93.01 52.01l-.86.83s.5 0 .97.17a4.4 4.4 0 0 1 .95.55c.14.13.36.13.5-.01l.02-.02c.07-.07.08-.18.02-.26-.39-.42-.72-.73-1.01-.89l-.61-.37z"/><path d="M91.99 52.98l-.94.81a4.1 4.1 0 0 1 .77.08 3.7 3.7 0 0 1 1.17.63c.21.15.49.12.67-.06l.17-.16c-.1-.08-.2-.19-.36-.34-.57-.52-1.5-.96-1.5-.96zm4.94-1.76h0c.05-.05.03-.04 0-.01zm28.97-25.11h0l.4 1.11.11.3.19.53.05.14.52 1.37-.02-.02.08.2.22.59.08.21c.28.73 1.08 1.62 1.1 1.64.96.83 2.36 1.63 3.14 1.67 2.76-.11 5.36 1.1 7.96 2.04 1.42.51 2.88 1 4.41.59 1.7-.45 3.38-1.42 5.08-1.9 2.35-.67 3.39-2.49 4.07-4.64l-.16-.19-.72.52-1.06-.12.19.93c-.79.56-.41-1.34-1.27-.58l.2.93-.22.11-.67-.9-.59.3c.14.64.72 1.19.16 1.96-.5-.62-.31-2.09-1.51-1.72-.04.66.92 1.27.39 2.08-.63-.48-.59-1.95-1.73-1.63l.54 1.89-.3.11c-.14-.27-.23-.59-.43-.81-.18-.2-.47-.52-.71-.65l.04.92.21 1.06-.26.06-.34-.59c-.16-.23-.39-.87-.56-.83-.44.11-.37.87-.3 1.25.03.15.04.53.02.78l-.24-.02c-.14-.23-.28-.75-.42-.98l-.19.03-.2 1.72c-.03.01-.15.08-.18.04-.24-.39-.64-1.18-.84-1.3-.19.13-.36.83-.54 1.15-.04.08-.19.06-.28.05l-.06-1.36-.29-.18-.72 1.3c-.66-.52.62-1.76-.5-2.01l-.69 1.38c-.5-.73.55-1.5-.27-2.02l-.63 1.37c-.56-.56.59-1.73-.54-1.93l-.65 1.58-.32-.07.28-1.8-.25-.12-1.03 1.6c-.17-1.62-.07-1.86-.28-1.96-.38.51-.11 1.43-1.06 1.76l.07-2.12-.19-.01-.95 1.91-.26-.1.16-.96.06-1.21-1.38 2.14-.32-.15.81-2.19-.33-.22-1.49 2.03-.22-.09c-.02-.88.52-1.37.49-2.28-.19-.11-.32 0-.51-.12-.3.33-.66 1.01-.93 1.31l-.24-.17c.15-.4.56-1.48.42-1.58-.05-.04-.17-.2-.27-.3s-.66.71-.75.56c-.08-.13.32-1.13.23-1.28-1.22-1.98-3.58-6.08-3.99-7.67-.48 1.89.21 3.22.85 4.63l.34.97z"/><path d="M153.75 64.57c-.47-.17-3.01-.34-5.11-.74-6.01-1.68-11.93-4.15-16.69-8.34.61-.82 1-1.51 1.3-1.92 1.1 1.1 2.17 1.92 3.57 2.22-2.3-3.51-1.44-7.74-.7-12.45a11.4 11.4 0 0 0 3.82 1.26c-2.96-2.87-4.18-6.91-5.27-9.57-.1-.06-.37-.12-.75-.19.21.58.54 1.54.84 2.7 0 0 .56 1.92 1.35 3.16.36.58 1.22 2.28 1.22 2.28l-1.16-.53c-.24-.12-.54-.31-.75-.45 0 .35 0 .7-.03 1.05a24.6 24.6 0 0 1-.81 4.65 14 14 0 0 0-.14 4.19c.05.41.28 1.56.28 1.56s-.91-.82-1.54-1.44c-1.68 3.41-3.77 5.14-3.77 5.14s-1.38 1.16-2.11 1.59l-.36.2c-.46.25-.92.46-1.39.63a3.5 3.5 0 0 0-.64.85c-.2.38-.67 2.32-.67 2.32s-.54-1.28-.63-2.5c0-.04-.03-.08-.03-.11-2.26.46-4.5.26-6.37.16-1.19-.06-2.1.08-3.14.31-.63.14-2.51.84-2.51.84s.58-.83 1.4-1.51c.41-.34.61-.47.7-.52a12.1 12.1 0 0 1-2.14-1.21c.48-.31.95-.67 1.4-1.05-.09.3-.23.62-.22.77.01.28.75.76.79.52a4.9 4.9 0 0 1 .79-1.84c.29-.35.29-.22.25.07-.06.43-.34 1.3-.34 1.82 0 .27.05.38.07.4.23.23.61.18.63-.02.07-.79.71-2.17.9-2.13.08.02-.24 1.22-.18 1.89.06.7.23.67.23.67s.35.17.37-.06c.03-.34.17-.54.27-.87.07-.26.74-1.35.74-1.35l.2.07c0 .4-.14.91-.19 2.05-.02.38.72.67 1.06.54s.31-.59.31-.79a4.6 4.6 0 0 1 .23-1.64c.03-.08.15-.05.15.03-.02.38.15.98.2 1.3a4.4 4.4 0 0 0 .36 1.11s.09.19.49.11c.21-.04.29-1.03.29-1.23s-.07-.55.07-.95.37-.4.37-.4.07 1.16.34 1.66c.16.3.25.75.64.84.1 0 .6-.13.55-.28-.18-.56-.32-2.5-.32-2.5l.17-.09.49 1.27c.13.38.39 1.01.83 1.2.3-.12.63-.21.59-.35-.07-.27-.23-.56-.33-1.08l-.2-1.15s.11-.24.17-.13c.11.2.49 1.11.57 1.28.14.27.38.91.92.91s.92-.38.92-.38-.56-.89-.73-1.24a4.8 4.8 0 0 1-.33-.85c-.05-.17.18-.28.28-.13.12.17.2.3.38.47.54.49 1.32 1.29 1.52 1.22s.63-.38.63-.38-.04-.26-.39-.7c-.41-.5-.8-1.06-1-1.27s-.01-.38.19-.18a8.5 8.5 0 0 0 1.28.83c.47.27.78.56.99.42.05-.03.16-.13.29-.27-.16-.21-.41-.69-.57-.89l-.86-1.11v-.37s1.02.84 1.31 1.03c.2.13.59.41.86.45.07-.1.5-.54.47-.57-.8-.95-.71-.98-1.35-1.62-.52-.47.41-.17 1.02.17l1 .57s.67-.54.07-1.04c-.22-.19-1.13-.86-1.62-1.1-.09-.05-.11-.19-.01-.17.45.08 1.14.17 1.44.24.65.15 1.03.76 1.03.76l.4-.82s.01-.29-.67-.73a4.5 4.5 0 0 0-1.42-.55c-.2 0 .21-.26.81-.26s1.27.4 1.52.52c.44.22.48.06.54-.09.59-1.52-2.13-1.82-2.09-2.02s.98-.1 1.39.03a44.4 44.4 0 0 1 1.23.45s.19-.63.03-.85c-.17-.25-.45-.65-1.06-.92s-1.17-.43-1.17-.43.94-.27 1.55 0 1.04.67 1.04.67.17-.4.04-.74-.74-.81-1.21-.94-1.14-.28-1.08-.47c.08-.22 1.21 0 1.75.13s.74.27.74.27.28-.71.16-.85c-.59-.71-2.26-.74-2.34-.87-.12-.19.83-.29 1.45-.25.33.02.79.11 1.12.23.08-.36-.36-1.01-.72-1.21-.57-.32-1.16-.33-1.49-.36-.09-.01-.06-.18.26-.28.35-.11.69-.23 1.24-.09.51.13.86.39.88.39.05 0-.06-.67-.06-.67-.27-.54-1.02-1.03-1.97-1.07-.56-.02-.42-.14-.42-.14s.58-.26 1.22-.2c.56.05 1.15.29 1.14.26-.15-.75-.43-1.34-2.06-1.54-1.03-.13-.41-.24-.41-.24s.42-.17.86-.16a7.1 7.1 0 0 1 1.44.17s.04-.25-.2-.47c-.38-.34-.85-.58-1.26-.7-.46-.13-1.52-.18-1.28-.28 1.06-.47 2.32-.08 2.32-.08s-.03-.16-.18-.54c-.28-.72-.51-.55-1.03-.58-.77-.06-1.41.05-1.46-.07s.52-.4 1.15-.45c.45-.03.85.11.93.07-.04-.09.03-.81-1-.98-.7-.12-1.27-.22-1.28-.19 0-.07.15-.22.24-.33l.08-.1c-2.59-.18-3.87-2.08-4.27-2.7-.02-.04-.04-.07-.07-.12-.92 1.8-1.73 3.2-2.31 4.14.17.05.39.12.62.23a36 36 0 0 0 1.07-1.87 11.3 11.3 0 0 1 3.78 8.49c-.01 1.73-.6 5.67-3 8.8-.52-.61-1.36-1.63-2.45-3.06-.68-.06-1.26-.22-1.51-.29l.94 1.3 2.18 3.03c-.61.66-1.25 1.27-2 1.76-.04-.06.19-.4.48-.75s.65-.64.65-.64-.05-.25-.44-.26c-.83-.01-1.71 1.07-1.86.9s.38-.67.58-.87.99-.76 1.03-.85-.07-.4-.54-.4c-.34 0-1.25.81-1.77 1.03-.21.09.1-.67.32-.85s1.27-.87 1.14-1.12-2.59.86-2.61.8 0-.27.1-.37 1.85-1.09 1.85-1.09c.06-.04-.26-.32-.44-.32-.58 0-1.3.41-1.41.45-.58.18-.76.02-.76.02l.89-.65c-.19.01-.36 0-.52-.02-.21-.03-.98-.23-.98-.23l.18.65s-1.61.06-2.38-.1c-.25-.05-.52-.06-.7.04a4.6 4.6 0 0 1 .57.47s-4.6 7.43-10.64 9.49c-2.57.88-4.65 1.01-6.82 1.12.03.02.49 1.94.49 1.94s-1.11-.92-1.58-1.25c-.89-.61-5.63-2.81-6.96-3.59l1.09-1.06c.6-.52.46-.38.97-.84l.16.18-.5 1.47c-.1.22-.03.48.17.61.25.16.39.03.45 0 .37-.2 1.13-1.5 1.23-1.44.07.04-.53 1.8-.28 1.9.03.01.3.19.3.19 0-.01.26.16.45.03.17-.11.82-1.65 1.07-1.6.18.03-.01 2.13-.01 2.13s.57.34.82.32.94-1.96 1-2.17c.23.01-.06 1.98.1 2.29.09.17.5.13.65.13.1-.07.46-1.45.59-2.05s.27-.12.3.05c.09.45 0 1.45.19 1.8.1.18.72.08.75.04.15-.58.15-1.46.37-2.26.13.08.35.59.45.81.12.26.15.98.48 1.18.22.13.7-.1.7-.1s-.33-2.38.07-2.01.81 1.99.81 1.99.43-.05.57-.7c.08-.35-.43-1.26-.05-1.52.05-.04.23.41.29.51.28.44.38.65.58.89.21.26.36.41.57.38.07-.01.12-.15.12-.22-.05-.56-.33-2.54-.19-2.44.34.24.98 1.69 1.44 1.91.07.03.99.11.3-1.56-.5-1.21-.24-1.45 0-1.21.42.42 1.28 1.66 1.42 1.76.43.29.72-.27.72-.27.06-.69-.32-1.12-.96-2.48 1.02.26 1.81 1.89 1.93 1.87.38-.04.55-.52.55-.52-.05-.27-.05-.61-.59-1.32-.72-.95-.53-.97-.53-.97a12.3 12.3 0 0 0 2.13 1.41c.16.16.45-.67.45-.67-.47-.63-1.56-1.62-1.56-1.62s.3-.27.99.07a4.1 4.1 0 0 1 1.31 1.08s.33.08.35-.44c.02-.47-1.7-1.62-1.67-1.73s.47-.32.98-.02a5.3 5.3 0 0 1 1.31 1.01s.52-.05.45-.55-.52-.86-1.44-1.67c-.06-.05.19-.19 1.01.07s1.37.48 1.37.48.25-.31.22-.52-.22-.49-.22-.49l-.24.22h-.01s-1.08-.27-2.69-1.68a8 8 0 0 1-.48-.46 6.8 6.8 0 0 1-.33.5 8.4 8.4 0 0 0-2.42-2.87c.42 1.73.46 4.11.04 5.41-.87-1.52-2.47-4.56-2.24-7.79-.9.9-1.46 1.93-1.58 3.05-.48-.29-.97-.87-1.48-1.49.62-.79 2.42-3.18 2.42-3.18.01-.12 6.84-1.1 12.58-.45h.03l.01.01.47.06c4.82.65 6.61 1.99 6.61 1.99s-.54-.18-1.41-.41l-.52-.1s.54.58.52.71c-.02.16-.75-.15-1.04-.38a9.6 9.6 0 0 1-.57-.52c-.39-.09-.52-.17-.96-.26.51.8 1.27 1.28 1.94 1.93-.02.04-.08.04-.1.07a3.4 3.4 0 0 1-2.4-2.08c-.31-.06-1.03-.24-1-.15 0 0-.08.21.55 1.08.28.38 1.48 1.66 1.39 1.71-.17.1-.52-.06-.79-.25-.17-.12-.86-.85-1.17-1.2-.14-.15-.92-1.15-1.1-1.39-.1-.13-.91-.32-.89-.13.02.16.34.96.36 1.04.07.25.24.5.36.71.48.82.83 1.27 1.22 1.81.28.39-.39-.06-.54-.2-.02-.02-.88-.89-1.2-1.41-.51-.85-1.11-1.99-1.2-2.09-.06-.04-.02-.02-.26-.03 0 0-.48 0-.49 0-.15.03 0 .76.28 1.29.99 1.88 1.68 2.6 1.98 3.05.02.03-.4-.11-.4-.11s-.59-.25-1.7-2.12c-.11-.18-1.2-1.85-1.31-2.1-.07-.15-.53-.26-.53.15 0 .1.21 1.12 1.08 2.65a10.2 10.2 0 0 0 1.2 1.84s.12.32-.22.15-.83-.78-1.63-2.09c-.69-1.14-1.18-2.69-1.44-2.77-.42 0-.61.03-.61.03-.02.06 0 .16.05.39 0 .02.01.04.01.06.26.73.65 1.66.98 2.24a137.6 137.6 0 0 1 1.21 2.19c.03.05-.09 0-.14-.03-.42-.23-1.54-1.69-2.14-2.72-.18-.32-.36-.65-.53-.96-.55-.98-.55-1.1-.61-1.18-.05-.06-.79.11-.8.14-.04.15.36 1.33.38 1.41.08.26.17.52.28.75a15.3 15.3 0 0 0 1.75 2.88c.31.41-.11.34-.25.3-.03-.01-.06-.02-.08-.05a11.5 11.5 0 0 1-.52-.55c-.32-.36-.72-.85-1.07-1.4-.56-.89-1.01-1.92-1.3-2.66-.13-.49-.4-.66-.87-.59l-.57.07c.11 1.28.86 4.55 5.35 7.13.14.05.09-.72.13-1.17.01-.17 1.09 1.4 3.6 1.17 0-.13-.11-1.3-.09-1.44 1.34 1.54 3.37.76 3.37.76l-.27-1.39s1.58.98 2.83.9c.62-.04 1.35-.53 1.21-.59-.58-.22-1.34-.97-1.28-1.06.57-.23 1.86.44 3.12-.06-.04-.19-.94-1.06-1-1.28 0 0-.09-.35.07-.43.23-.13 1.94-.14 2.32-.13-.13-.94-.36-1.26-.9-1.84-.55-.59-1.54-1.27-1.53-1.34s1.22-.5 1.22-.5c-.45-1.57-2.92-2.09-2.94-2.22s1.3-.34 1.3-.34c-.87-1.36-3.24-2.18-3.51-2.18s.47-.53.88-.88c.29-.25-3.34-.74-4.64-.2 0 0-.13-.91.16-1.28-.99-.27-2.38.4-3.1 1.37.05-.74.15-1.11.09-1.23 0 0-.64.23-1.46.68l-.48-.74c.55-.38 1.17-.73 1.88-.98 1.56-.54 3.31-.54 4.42-.46l-1.13 2.01c-.05.26 1.42-.49 3.12-.16.72.14 1.23.17 1.58.3.09-.09.15-.3.06-.35-.33-.18-.95-.44-1.26-.83-.14-.17-.07-.26-.11-.38a34.7 34.7 0 0 1 1.91.58s.04-.21.09-.31l-1.62-1.05.18-.25c.07-.08 1.57.4 1.66.45.27.13.34-.2.36-.22.09-.14-1.57-1.21-1.57-1.21s.09-.4.14-.36c.05.05 1.47.51 1.8.67.09.05.18-.36.18-.36s-1.3-1.12-1.48-1.21c-.24-.12.01-.47.05-.49.07-.05.61.18 1.14.42a7.9 7.9 0 0 0-.19-.53c-.09-.2-.45-.9-.68-1.34l-.17.01h0c-.41.04-.88.1-1.5.1l-2.17 3.85c-3.02-.09-5.94.45-7.3 1.49-5.47 4.17-9.53 11.1-9.58 11.16l-1.05-1.08-1.17-1.22c.02-.04.18-.2 1.16.36.27.15.83.61 1.09.28.13-.16-.45-1.02-1.03-1.75s0-.44 0-.44c.56.27 1.23 1.08 1.8 1.23.05-.07.19-.29.24-.36 0 0-1.39-1.63-1.52-1.99s.73.18 1.45.62c.27.16.55.5.8.56.2-.05.54-.46.18-.82 0 0-1.32-1.48-1.27-1.66.07-.21.62.09 1.06.41.36.26 1.09.78 1.22.62l.1-.12-1.03-1.58s-.03-.17.25-.02c.23.13 1.33 1.09 1.49.9.02-.02.1-.34.11-.36l-1.25-1.49c.14-.4.69.1.74.13.46.31 1.03.79 1.25.73.14-.03.19-.07.15-.47-.03-.28-.63-1.19-1.09-1.61-.2-.18-.11-.35.03-.29.34.15.56.35.84.57.09.07.9.85 1.31.45.18-.18-.85-2-.85-2-.07-.1.11-.36.2-.27.37.37.69.97.89 1.11.62.44.57.05.7-.08-.43-1.04-.49-1.76-.55-2.17-.02-.13.22-.57.3-.47l.61 1.45c.37.64.8.13.94.02-.72-1.92-.25-3.43-.01-2.51a7.2 7.2 0 0 0 .89 1.9c.02-.01.03-.02.05-.03.16-.09.57-.62.73-.7-.31-.96-.56-1.57-.48-2.13l.35-.27c.22 1.16.66 1.9.97 2 .04-.02.5-.16.54-.18-.25-1.07.19-2.62.19-2.62.08-.01.16.05.17.13.11.55.15 1.7.38 2.04.14.22.52.16.61.14.29-.09.42-.25.42-.55 0-1.8.74-2.51.65-1.94-.12.76-.07 1.96.11 2.14s.81.02.88.01c.54-2.09 1.23-3.01 1.17-2.29-.03.34-.35 1.51-.18 2.09.07.25.33.12.48.15.43.08.17-1.74 1.11-2.19.25-.12-.18 1.14.02.83s.88-1.68.9-1.71c-.99-.54-1.41-1.44-1.41-1.44-.49-.25-2.78-.13-3.86.09.57-1.41-.49-4.44-.49-4.44-1.08 2.11-1.25 2.45-2.63 4.2-.85 1.08-2.2 2.19-2.83 2.68l-.89-1.3c-.4.6-.69.71-.69.71l1.36.9s-.57.99-1.17 1.66c-.19.21-1 .91-1 .91l.93.25s-.79 1.51-2.18 2.82a13.7 13.7 0 0 1-3.92 2.62l-2.59 3.39-.49-.5-.93-.96c-.47-.66-.45-2.05-.43-2.53.03-1.56.17-5.57.9-7.97 1.24-4.06 4.8-9.1 5.05-9.4s.74-1.14.79-.99-.35.79-.74 1.53c-.1.19-.39.65-.77 1.28.01.03.04.05.1.07.12.03.86-.15 1.19-.21.2-.04.09.39-.38.58-.52.22-.95.3-1.27.42-.12.07-.27.27-.36.46-.02.04-.49.5-.12.45 1.31-.18 2.59-.67 2.61-.55.04.18-1.19.77-2.39 1.14-1.22.37-1.19.7-1.21.79-.14.54-.4.75 2.07.06 1.43-.4 1.64-.64 1.76-.55.03.02-.46.57-1.75 1.08-.74.29-2.19.59-2.58.64-.11.03-.27.27-.31.45-.03.13-.26.41-.02.44 1.29.11 4.15-.83 4.5-.87.04 0-.21.2-.23.23-.09.11-.7.53-2.69.97-.61.13-1.92.19-2.09.46-.07.11-.17.46-.22.64.02.02.04.04.07.05.17.16 2.03 0 3.86-.67 1.22-.45 1.2-.33 1.48-.5.07-.04.1-.02.06.05-.19.35-.51.63-3.11 1.55-1.31.47-2.5.43-2.63.64-.01.02-.4.79-.11.83.26.04 4.79-1.12 5.63-1.33.02 0 .03.02.01.03-.41.23-.72.63-4.79 1.76-.6.17-.99.14-1.03.26-.01.02-.14.69-.14.73.02.11.43.07.51.07.77-.06 2.23-.55 3.2-.95a56.8 56.8 0 0 1 2.76-1.04c0 0 .03.07.03.08a17.5 17.5 0 0 1-3.64 1.92c-1.58.6-2.56.56-2.83.87l-.02.06c0 .01-.01.02-.01.04l-.02.08.02-.08c-.07.21-.36.79.47.66.44-.07 5.67-2.15 5.67-2.15s.03.17-.58.55-1.26 1.2-5.64 2.4c-.18.05-.22.95-.04.96.56-.06 2.02-.29 2.92-.56 1.57-.47 3.46-1.95 3.46-1.95l.22.03s-1.58 1.65-3.63 2.46c-1.94.76-2.84.54-3.12.85-.01 1.09.05 1.16.05 1.16s.67.07 2.76-.23c2.21-.32 3.41-1.23 4.89-2.78a17 17 0 0 0 1.13-1.37c.04-.06.02-.14-.05-.16l-1.52-.45c1.32-.55 2.28-1.3 2.72-2.18.04-.08-.01-.16-.08-.2-.5-.32-1.08-.77-1.48-1a4.2 4.2 0 0 0 1.83-2.54c.02-.11-.08-.21-.2-.2l-1.43.22s1.69-1.52 1.69-2.58c0-.14-.13-.25-.27-.23-.7.13-1.72.27-1.72.27s1.48-1.51.81-2.99c-.04-.09-.14-.13-.23-.1l-1.46.48s.82-3.67-.25-3.88c-1.26-.24-4.3 2.09-4.24 2.18-.19-.31-.18-.47-.58-1.35-1.01-.3-2.51 2.92-2.51 2.92-.13-.48-.68-1.54-.7-1.53-1.11.95-1.95 3.91-1.95 3.91-.11-.33-.22-.73-.26-1.1-.01-.08-.1-.11-.16-.06-1.73 1.52-1.55 3.47-1.16 4.56l-.74-1.05c-.05-.07-.17-.07-.21.01a4.5 4.5 0 0 0 .55 4.41c.15.19-1.26-.67-1.26-.67.04.69.72 4.85 3.75 6.75.77.48.66 1.11.5 2.06l-.98-1.05-3.53-3.73c-.13-.15-.23-.28-.29-.37-.03-.04-.04-.08-.06-.11a5.8 5.8 0 0 0-1.51.94 16.8 16.8 0 0 0-1.75 2.16 11.4 11.4 0 0 1-.14.2s-.43.55-.6.82c-.26.37-.49.71-.56.91a10.7 10.7 0 0 1-.21.57l.93.17a12.8 12.8 0 0 1 .32-.66l4.71 4.63a81.7 81.7 0 0 1 1.6 1.81c.01.06-.02.12-.09.13l-1.52.18c-.42.06-5.72.94-9.28 1.63a51.8 51.8 0 0 0-4.84 1.22c-1.36.46-2.75 1.24-4.06 1.81-.09.04-.15.04-.19 0 .04-.46 1.77-1.08 1.97-1.23.15-.08-.36-.35-.6-.55-.07-.06-.04-.17.05-.19.5-.06 1.32.48 1.75.05.05-.05.04-.13-.02-.16-.23-.15-.68-.39-.95-.56-.07-.04-.06-.15.01-.18.41-.2 1.05.32 1.31.4.54.15.86.16 1.2-.07.06-.04.06-.14 0-.18L79.5 45.2c-.09-.06-.05-.19.05-.2.67-.03 1.82.72 2.2.99.41.29.83.32 1.37.1.08-.03.09-.14.02-.19-.71-.45-2.19-1.31-2.8-1.7-.04-.03-.06-.08-.04-.12h0c.02-.05.07-.08.12-.07.19.04.35.08.53.17a83.3 83.3 0 0 0 3.14 1.59c.23.1.49-.08.7-.17.07-.03.09-.12.03-.18-1.58-1.5-2.59-1.91-3.65-2.27-.14-.05-.27-.05-.4-.15.17-.04.36-.13.51-.1 1.25.27 3.1 1.27 4.08 2.05a2.1 2.1 0 0 0 1.57.2c.08-.02.1-.12.05-.18-1.33-1.32-3.62-2.26-4.6-2.88 0 0 .26-.02.36-.01a20.2 20.2 0 0 1 2.35.93c1.02.58 2.08 1.43 2.69 1.83.22.14.31.1.44.08l.32-.1c.09-.01.12-.12.06-.18-1.25-1.3-4.27-2.92-4.67-3.33.02-.05.18-.02.29-.03a51.1 51.1 0 0 1 3.21 1.61c.33.21.93.68 1.97 1.47.3.23.36.23.55.15.16-.08.48-.15.68-.2.08-.02.1-.12.04-.18-.61-.55-1.28-1.16-1.92-1.63-.61-.45-2.73-1.51-3.75-2.06-.1-.06-.05-.21.06-.2.8.1 2.35.96 2.64 1.1 2.08.98 2.95 1.59 3.96 2.6.28.28.68.14 1.13-.08.06-.03.08-.1.04-.16-1.42-1.86-2.8-2.66-5.72-3.85 0 0-.1-.1.03-.11s.37 0 .66.05c1.6.3 3.37 1.01 4.44 2.08.22.22 1.22 1.32 1.74 1.76.21.14.61.06.91.02-3.58-6.09-9.28-5.21-10.63-5.09-.02 0 .92.69 1.3 1.03 0 0-3.1-.63-5.43.58-.02.01 1.17.81 1.17.81s-2.12-.13-3.94 1.78c-.05.05-.03.13.04.15l1.07.36a4.6 4.6 0 0 0-3.11 2.6c-.02.04.01.09.06.1l1.03.12a12.1 12.1 0 0 0-2.38 3.82c.63.36 2.44 1.42 3.95 1.39l-1.12.9c2.38 1.53 4.62.27 4.62.27l-1.03 1.03c-.04.04-.02.11.03.13 1.62.4 3.06.02 3.47-.21l-.53.96c-.02.04.02.09.06.08a12.5 12.5 0 0 0 3.19-1.62L86.38 54c1.88-.61 3.14-1.88 3.14-1.88l.17 1.37c.01.05.07.08.11.05 4.63-2.91 5.69-6.51 5.78-8.65.08.08 1.29-.31 1.87.02l.06.38c-.25.25-.63.61-1.22 1.15-.2.94-.68 2.5-1.74 3.98-.06.08-.12.16-.19.25l.34.01c.69.02 1.26.41 1.49.61.21.18.52.17.71-.03.01-.01.02-.02.02-.02l-.07.06.07-.07.02-.24c.01-.07-.01-.14-.05-.2a6.7 6.7 0 0 0-1.46-1.45c-.12-.08.74-.1.81-.06.29.17 1.05.78 1.26.98.15.15.39.15.55.01l.17-.14c-.21-.43-1.22-1.84-1.3-2.16-.03-.11.09-.22.13-.2.13.07 1.36 1.02 1.81 1.32.19.13.45.11.63-.04l.06-.05h0a7.3 7.3 0 0 1-.54-.9c-.33-.56-.46-1.05-.46-1.06v-.6l2.14 2.27.09.1a2.7 2.7 0 0 0-.47.36s-2.55 2.36-5.86 5.29l-3 2.65c-.31.26-.5.41-.58.52a102.1 102.1 0 0 0-3.01 2.79c-3.05 2.96-5.53 5.7-5.58 5.81l-.36-.24c-3.09-1.57-9.04-1.09-8.87-1.35.06-.1.69-.22.69-.22s3.59-.8 7.6.21c.33.12 1.22.28 1.28.2.07-.09.37-.36.45-.45-.8-.64-5.05-1.02-5-1.1a6.3 6.3 0 0 1 1.11-.37c.74-.17 2.47-.06 4.34.69.26-.04.47-.27.65-.45-.6-.64-3.44-1.17-3.31-1.35s2.88.27 3.92.47c.14.03.29-.02.39-.12l.26-.26c-.66-.24-3.3-1.21-3.25-1.32s.76-.1 1.93.02a7.9 7.9 0 0 1 1.91.4c.13.05.32.01.42-.09l.2-.19c-.29-.51-2.98-1.16-2.93-1.25s.52-.18 1.03-.2c.48-.02 1.54.16 2.19.52.13.07.52.27.63.17.05-.05.13-.14.19-.19-.25-.64-2.4-1.35-2.35-1.42s.69-.15 1.15-.09 1.18.44 1.77.65c.14.05.31.02.42-.09l.23-.2c-.39-.4-.98-1.01-2.5-1.46-.53-.16 1.27-.3 1.92-.05.36.14.84.41 1.14.65.13.1.31.1.43-.01l.34-.29c-.29-.81-2.19-1.38-2.2-1.49s.83-.15 1.35 0c.3.09.87.41 1.27.66.19.12.44.1.61-.04l.18-.16a2.3 2.3 0 0 0-.45-.48c-.53-.46-1.37-.89-1.42-.9-.02-.01-.1-.04-.11-.05-.09.07-.21.11-.29.08-.19-.08-.36-1.58-.36-1.58s-1.17.78-1.88 1.02l-.13.11c-5.09 4.28-12.16 9-19.76 10.68-1.16.25-3.4-.6-3.2 1l1.18.18c3.23.28 9.56-.51 12.22-.51.78.02 1.7.03 1.5.83-1.2.5-3.2.2-4.8.3 0 0 2.37 1.21 5.92 1.43 1.19.07 2.28-.03 2.28-.03 1.47-2.86 4.4-5.75 5.49-6.73s2.65-2.51 3.9-3.55c1.93 1.44 2.83 1.42 6.18 3.28.48.41 2.09.72 4.56 3.68.05-1.57-.05-2.69-.51-3.77 0 0 4.95-.09 8.65-2.63.42.39.97.92 1.15.94-1.3 1.3-1.82 3.08-2.42 4.58 3.9-3.91 7.13-2.62 13.54-3.27.5 1.5.9 3.1 2.3 4.01-.05-3.21.78-4.59 1.08-4.92.05-.06.17-.14.34-.24 3.46 2.42 9.46 5.26 11.95 8.72 1.64.19 2.79-.76 4.39-1.54a8 8 0 0 1-.35-.02c-.3-.6.44-.89 1.24-.92 2-.06 6.03-.75 6.37-.63s-1.75.78-2.42.99c-.88.42-6.87 1.52-4.71 1.78 4.68.56 9.9-2.35 12.05-2.72.01-.01-.81-.8-1.28-.97zm-25.37-29.68c-.12.05-.31-.27-.41-.39-.34-.47-1.01-.94-1.01-.94l.47-.74.57 1.02c0 0 .56.97.38 1.05zm-9.91 15.31c1.38 2.02 2.8 4.16 3.54 4.97-.33.07-.69.13-1.06.17-1.37.15-4.04.02-5.36-.99 1.69-2.06 2.78-3.98 2.88-4.16zm-6.05-1.27s-.49.63-.81.88c.09-.97 0-1.94-.05-2.24.58.4.85 1.37.85 1.37zm12.86-9.33c.09-.03.26.19.4.29l-1.02.73c-.31-.85.22-.9.62-1.02zm-.85-1.39c-.86.66-1.42 1.53-2.58 1.71.49-1.02 1.72-1.87 2.58-1.71zm-3.45-.45c.51-.29 1.31-.47 1.07-.3-.18.12-.9.9-1.14 1.16-.29.32-.58.73-.58.73l-.18.01c0 0-.07-1.09.83-1.61zm-.97-.7l-2.38 2.53-.17-.15c.44-1.4 1.87-2.76 2.55-2.38zm-2.05-.74l-2.68 3.24c.1-1.13 1.53-3.02 2.68-3.24zm-4.94 3.31c-.02-1.37.85-2.75 1.86-2.81l-1.86 2.81zm-.33-3.9c.16-.45.46-.64.92-1.03l.62-.5.48.59c-.39.25-1.2.74-1.5.9s-.67.49-.52.04zm-1.67 1.59l.65.74c-.61 1.19-.77 2.16-.77 2.16l-2.39.04a62.5 62.5 0 0 1 2.5-2.94zm4.84-11.61c.32-.37 1.01-1.41 1.01-1.41a7.6 7.6 0 0 0 .05 1.29c-.08.57-.21.78-.21.78l-1.83.49c0 0 .66-.77.98-1.14zm-12.47-6.54c.2.63.65 1.1.41 1.86-.57-.44-.8-1.33-.41-1.86zM80.38 51.09c-.06.09-.33-.15-.51-.23.32-.35.83-.9 1.32-1.16-.24.86-.51.93-.81 1.39zm.93.75c.72-.99 1.53-2.44 2.23-2.69-.2 1.27-1.25 2.59-2.23 2.69zm2.34-.49c.87-.98.95-1.28 1.51-1.98.38-.36.84-.94.91-.88-.35 1.62-1.46 3.29-2.42 2.86zm2.94-.49c-.08.05-.27.13-.36.09.16-.64.67-1.95 1.83-2.42-.49.78-.58 1.33-1.46 2.33zm1.13.51c.31-1.03 1.81-2.36 2.37-4.12.1 1.28-1.14 3.65-2.37 4.12zm2.91-1.59c.54-1.08 1.14-1.96 1.7-3.41.21 1.53-.58 3.21-1.7 3.41zm17.19-4.58c-.05.3.22 1.5.49 2.56-.31-.25-.83-.94-.83-.94s-.25-1.21.34-1.62zm-6.87-24.04c.34-.07.6 1.2 1.08 1.41.16.07-.28.26-.87 0-.38-.16-.54-1.35-.2-1.41zm-1.62 1.25a16.4 16.4 0 0 0 .77 1.44c.22.38.53.77.53.77l-.04.17s-1.06-.26-1.28-1.28c-.13-.57-.05-1.39.03-1.11zm-1.46.9a5.7 5.7 0 0 0 .88 2.18c.72 1.03 1.55 1.82 1.55 1.82s-.28.14-.39.08c-.17-.09-1.15-.43-1.59-1.21-.34-.61-.53-1.56-.58-2.02-.03-.26.1-1.02.12-.85zm-1.48 3.17l1.03 1.27c1.06 1.33 2.15 1.83 2.15 1.83l-.03.25s-.84.3-1.77-.64c-1.24-1.24-1.29-1.83-1.34-2.01-.03-.13-.03-.7-.03-.7zm1.65 5.58c-.47-.16-1.15-.77-1.41-1.09s-.46-.87-.46-.87-.09-.23.52.31c.66.59 1.45 1.1 1.86 1.27l.41.17s-.46.36-.93.21zm2 14.38c-.39-.44-.93-.84-1.32-1.27l-3-3.34c-.97-1.11-4.86-4.94-4.92-5.01a22.9 22.9 0 0 1 1.74-2.23 4 4 0 0 1 .14-.15c.1.16-.08.32-.1.35-.85 1.05-.57 1.91-.57 1.91s.08.26.19.22c.12-.04.25-.61.52-.92.59-.68 1.51-1.17.54-.01-.28.33-.5 1.35-.25 1.53.16.11.34-.29.61-.58.24-.26.69-.62.97-.65.19-.02.02.28-.31.61-.58.57-.66 1.1-.64 1.36 0 .04.16.24.29.39.08.09.22.09.29-.01.27-.38.68-1.03 1.27-1.22.78-.25-.55.78-.83 2.02-.04.19.28.73.44.58.33-.3.25-.93 1.38-1.61.13-.08.72-.34.36.13-.46.58-.62.74-.81 1.19-.27.63-.34.94-.09 1.33.13.2.62-.38.99-.88.56-.75 1.05-.78.94-.62-.37.55-.77 1.28-.96 1.58a1.7 1.7 0 0 0-.17.82c0 .05.03.1.07.13 0 0 .24.26.3.17.19-.28.59-.87.84-1.07.48-.37.89-.64 1-.52.15.18-.86 1.08-1.26 2.2-.05.14.09.28.23.23.42-.15.59-.53 1.1-.91.18-.13.93-.59.95-.52.05.14-.53.71-1.14 1.6-.36.51-.28.49-.28.64 0 .05.02.09.05.13l.03.04c.07.08.19.08.26.01a8.2 8.2 0 0 1 1.73-1.29c.94-.53.51.21.07.66-.46.47-.97.91-1.02 1.45-.03.44.45.54.46.52.25-.25 1.11-1.16 2.13-1.6.19-.08.3.13.17.3-.03.04-1.16 1.26-1.54 2.02-.03.06.33.32.43.47.2.29 1.74-1.8 2.3-1.24.05.05-1.13 1.13-1.32 2.21-.01.06-.03.13 0 .18.03.05.06.09.1.13.07.08.2.08.27 0 .35-.42 1.13-1.29 1.61-1.44.18-.06.32.16.19.3-.51.54-1.26 1.91-1.17 2.02.06.07.43.41.5.36.56-.33 2.15-1.78 2.01-1.44s-.94 1.62-1.42 2c-.07.05-.09.15-.05.22.1.2.15.35.48.34.43-.01 1.93-1.15 1.93-1.15.27.25-.54 1.21-1.26 1.98-.09.1.2.42.23.5.06.15.28.06.42-.02 1.12-.62.66-.51 1.59-.97.77-.38.02.56-.38 1.1-.22.29-.67.8-.53 1.08.03.05.45.01.96-.13a7.6 7.6 0 0 0 1.48-.59c.12-.06.17.04.18.12-.03.03-.06.06-.09.09-1.12.94-1.37 1.17-2.47 1.8-.06.03-.1.04-.1.03l-.64-.7c-.27-.19-.75-.45-1.57-.68-.71-.2-2.29-.71-2.29-.71s1.17-.25 1.63-.3l.65-.07-4.56-5.17zm-3.27 7.19c.89-.97 3.51-3.26 4.6-4.19a53 53 0 0 0 1.51 1.53c-1.4.3-2.72.58-3.92 1.38l.7.18c2.1.4 4.16.74 5.42 1.41.24.12.72.48.9.58a10.3 10.3 0 0 1-3.53.85c-2.5.19-5.32-.8-6.27-1.17a12.2 12.2 0 0 0 .58-.58zm43.26 13.07s-.54-1.06 3.28-2.61c-.03-.01-.33-.22-.57-.32-.82-.34-1.6.09-2.41.56-.75.44-1.51 1.43-1.62 1.37-.12-.06.22-.92.63-1.36.96-1.07 1.35-1.01 1.62-1.17.03-.02.02-.06-.01-.08-.11-.07-.27-.17-.55-.23a10.1 10.1 0 0 0-2.98 1.6c-.17-.04.29-1.15 1.72-1.99.24-.14-.23-.42-.54-.33-.95.28-1.47.66-2.25 1.43-.12.12.06-.87.35-1.16.67-.68 1.2-.79 1.2-.79-.06-.07-.62-.35-.62-.35-.23-.09-.78-.07-1.39.23-.49.24-.96.63-1.09.94 0 0-.22-.41.21-.98.21-.27.43-.44 1.03-.79.04-.02-.33-.38-.58-.4s-.74.15-1.18.55c-.75.67-1.34 1.02-.99.42.89-1.55 1.64-1.45 1.48-1.58s-.91-.66-1.84 0-1.13 1.08-1.13 1.08-.1-.51.25-.98c.54-.75.94-.8.99-.94 0 0-.27-.31-.34-.34-.29-.13-.81.06-1.49.66-.2.18-.81.59-.76.42.21-.76 1.14-1.8 1.14-1.8l-.34-.26s-1.3.88-1.6.95c-.13.03-.25.04-.37.04l.04-.02.76-.94c.1-.09.19-.17.28-.26.29-.28.55-.55.78-.82 6.47 4.6 10.41 6.52 16.41 8.08-5.16.09-7.54 2.17-7.54 2.17z"/></g><defs ><path id="B" d="M144.33 105.28l1.43-1.42V90.31l-1.43-1.42h10.3v3.24l-1.91-1.85h-4.94v5.59h3.64l1.46-1.41v4.21l-1.46-1.41h-3.64v6.63h4.94l1.91-1.88v3.27z"/><path id="C" d="M172.75 105.28l1.43-1.42V90.28h-3.02l-1.94 1.85V88.9h11.93v3.24l-1.91-1.85h-3.05v13.58l1.46 1.42z"/></defs></svg>